HIERARCHY
ROOT Pelvis
{
	OFFSET 0.000000 0.941512 0.000000
	CHANNELS 6 Xposition Yposition Zposition Zrotation Yrotation Xrotation 
	JOINT Pelvis_L_Hip
	{
		OFFSET 0.000000 0.000000 0.000000
		CHANNELS 3 Zrotation Yrotation Xrotation
		JOINT L_Hip
		{
			OFFSET 0.062321 -0.080322 -0.016990
			CHANNELS 3 Zrotation Yrotation Xrotation
			JOINT L_Knee
			{
				OFFSET 0.093051 -0.381305 -0.029784
				CHANNELS 3 Zrotation Yrotation Xrotation
				JOINT L_Ankle
				{
					OFFSET -0.010371 -0.431000 -0.033614
					CHANNELS 3 Zrotation Yrotation Xrotation
					End Site #name: L_Foot
					{
						OFFSET 0.069299 -0.038670 0.119418
					}
				}
			}
		}
	}
	JOINT Pelvis_R_Hip
	{
		OFFSET 0.000000 0.000000 0.000000
		CHANNELS 3 Zrotation Yrotation Xrotation
		JOINT R_Hip
		{
			OFFSET -0.055334 -0.094904 -0.002373
			CHANNELS 3 Zrotation Yrotation Xrotation
			JOINT R_Knee
			{
				OFFSET -0.064207 -0.384370 -0.019592
				CHANNELS 3 Zrotation Yrotation Xrotation
				JOINT R_Ankle
				{
					OFFSET 0.025418 -0.419734 -0.065953
					CHANNELS 3 Zrotation Yrotation Xrotation
					End Site #name: R_Foot
					{
						OFFSET -0.057233 -0.039888 0.132134
					}
				}
			}
		}
	}
	JOINT Pelvis_Spine1
	{
		OFFSET 0.000000 0.000000 0.000000
		CHANNELS 3 Zrotation Yrotation Xrotation
		JOINT Spine1
		{
			OFFSET -0.005562 0.124093 -0.043360
			CHANNELS 3 Zrotation Yrotation Xrotation
			JOINT Spine2
			{
				OFFSET 0.012244 0.139499 0.029894
				CHANNELS 3 Zrotation Yrotation Xrotation
				JOINT Spine3
				{
					OFFSET -0.002556 0.056561 0.009225
					CHANNELS 3 Zrotation Yrotation Xrotation
					JOINT Spine3_Neck
					{
						OFFSET 0.000000 0.000000 0.000000
						CHANNELS 3 Zrotation Yrotation Xrotation
						JOINT Neck
						{
							OFFSET -0.005205 0.217920 -0.024551
							CHANNELS 3 Zrotation Yrotation Xrotation
							End Site #name: Head
							{
								OFFSET 0.002365 0.091850 0.046637
							}
						}
					}
					JOINT Spine3_L_Collar
					{
						OFFSET 0.000000 0.000000 0.000000
						CHANNELS 3 Zrotation Yrotation Xrotation
						JOINT L_Collar
						{
							OFFSET 0.072225 0.116603 -0.009480
							CHANNELS 3 Zrotation Yrotation Xrotation
							JOINT L_Shoulder
							{
								OFFSET 0.115937 -0.058643 -0.021018
								CHANNELS 3 Zrotation Yrotation Xrotation
								JOINT L_Elbow
								{
									OFFSET 0.021994 -0.254722 -0.024492
									CHANNELS 3 Zrotation Yrotation Xrotation
									End Site #name: L_Wrist
									{
										OFFSET 0.048810 -0.240214 0.103329
									}
								}
							}
						}
					}
					JOINT Spine3_R_Collar
					{
						OFFSET 0.000000 0.000000 0.000000
						CHANNELS 3 Zrotation Yrotation Xrotation
						JOINT R_Collar
						{
							OFFSET -0.073372 0.120704 -0.024611
							CHANNELS 3 Zrotation Yrotation Xrotation
							JOINT R_Shoulder
							{
								OFFSET -0.108089 -0.054969 -0.020504
								CHANNELS 3 Zrotation Yrotation Xrotation
								JOINT R_Elbow
								{
									OFFSET -0.033684 -0.260739 0.009889
									CHANNELS 3 Zrotation Yrotation Xrotation
									End Site #name: R_Wrist
									{
										OFFSET -0.067980 -0.232763 0.118463
									}
								}
							}
						}
					}
				}
			}
		}
	}
}
MOTION
Frames: 15
Frame Time: 0.041667
-0.024481 0.895499 0.000878 -0.895560 -3.217053 -1.082459 0.000000 0.000000 0.000000 -6.759233 -8.607100 -30.216625 6.365848 -2.116377 20.819919 3.447621 -0.715418 -6.594416 0.000000 0.000000 0.000000 6.715971 -2.529986 9.738439 -9.232613 4.145321 17.393427 -4.151432 6.659125 -12.601453 0.000000 0.000000 0.000000 2.140597 -0.219805 -2.304571 -11.496687 6.639283 28.490392 6.119927 8.292182 -25.463252 0.000000 0.000000 0.000000 -2.387962 0.817911 13.950114 0.000000 0.000000 0.000000 28.214662 -2.169474 4.913631 -22.983136 6.304656 16.472703 -8.017643 -1.331630 7.623995 0.000000 0.000000 0.000000 -32.180711 12.045768 -4.621471 24.088407 2.247944 -0.677382 3.336626 13.270323 -29.085727 
-0.018169 0.895685 0.006538 0.556244 -2.496870 -0.029675 0.000000 0.000000 0.000000 -9.394825 -9.156844 -30.172500 5.916115 -2.270247 24.378107 1.069836 0.393412 -1.681700 0.000000 0.000000 0.000000 4.671888 -1.906626 8.029001 -8.412614 5.232884 25.918574 -2.479504 5.870582 -8.787286 0.000000 0.000000 0.000000 0.231727 0.290444 -3.942267 -10.792159 6.135633 27.662766 5.516606 7.456875 -25.330899 0.000000 0.000000 0.000000 -1.089744 0.004620 14.805019 0.000000 0.000000 0.000000 27.867671 -1.918180 4.986471 -21.147382 5.910928 16.472468 -8.374452 -1.186590 8.594604 0.000000 0.000000 0.000000 -30.087946 9.969757 -2.864770 25.540182 1.327557 2.092716 3.379211 12.430892 -27.272816 
-0.010224 0.901867 0.010988 2.523252 -1.191238 -0.292500 0.000000 0.000000 0.000000 -14.011064 -9.328072 -27.776596 6.127194 -2.705264 28.474876 3.083586 0.334298 -5.295892 0.000000 0.000000 0.000000 2.016329 -0.583427 2.615110 -4.922850 5.766845 41.003917 2.035173 2.218112 2.981195 0.000000 0.000000 0.000000 -1.445842 0.637066 -4.561857 -10.696478 6.041472 27.811764 4.641525 6.485959 -24.951890 0.000000 0.000000 0.000000 0.398434 -0.891709 13.987900 0.000000 0.000000 0.000000 28.167685 -2.960673 4.173971 -20.325747 4.934517 13.515528 -8.544767 -1.289074 8.439839 0.000000 0.000000 0.000000 -29.038148 8.037595 -1.287665 27.118725 0.480893 4.488701 4.979978 11.163990 -21.579118 
-0.005725 0.907676 0.015135 3.418010 -0.366278 -2.735613 0.000000 0.000000 0.000000 -16.647931 -6.406388 -18.938447 5.780841 -2.276212 24.019722 4.006997 -2.085613 -8.097219 0.000000 0.000000 0.000000 1.940930 0.481047 -3.118779 -2.813955 6.306869 55.600421 5.573734 -3.387403 15.443196 0.000000 0.000000 0.000000 -2.515218 0.623483 -1.592439 -10.225202 5.706697 27.295094 4.333368 5.542102 -24.942266 0.000000 0.000000 0.000000 1.041182 -1.347722 15.248570 0.000000 0.000000 0.000000 27.603035 -5.027723 2.140827 -19.743988 4.064493 10.730476 -8.545016 -1.999787 5.935555 0.000000 0.000000 0.000000 -29.327320 8.187198 -1.302871 28.128976 -0.379586 6.756698 6.587659 8.976997 -13.874668 
-0.003008 0.914243 0.012474 2.470058 -0.349558 -3.799791 0.000000 0.000000 0.000000 -17.032731 -4.397351 -13.823510 6.523322 -2.399067 22.807913 4.869999 -2.957408 -10.003863 0.000000 0.000000 0.000000 2.489768 2.096550 -11.713858 0.586084 4.807460 66.505707 1.532692 -6.974142 9.518506 0.000000 0.000000 0.000000 -1.348946 0.245554 0.451795 -9.422711 5.277281 26.794487 3.818779 4.721654 -25.256910 0.000000 0.000000 0.000000 0.664855 -1.109801 15.916227 0.000000 0.000000 0.000000 27.311102 -7.361921 -0.068585 -19.231782 2.898436 6.694118 -8.160606 -2.326317 4.269136 0.000000 0.000000 0.000000 -28.692501 8.468994 -1.537237 26.622259 -1.262178 8.995163 8.144489 6.965389 -6.701155 
-0.000182 0.919547 0.009218 0.231546 1.036680 -3.380948 0.000000 0.000000 0.000000 -15.929922 -2.741952 -9.858462 8.175587 -2.669092 20.274635 5.441015 -5.869398 -12.021298 0.000000 0.000000 0.000000 3.893626 4.022294 -20.881614 2.841545 2.226129 68.393171 -0.927641 -9.731522 5.949872 0.000000 0.000000 0.000000 0.966081 0.039686 -2.484094 -7.220288 4.819290 31.419294 3.088851 3.367954 -26.485549 0.000000 0.000000 0.000000 -0.078907 -0.725666 17.837018 0.000000 0.000000 0.000000 29.101527 -11.586319 -3.575094 -20.326983 1.632890 1.748341 -7.644668 -2.676064 2.310656 0.000000 0.000000 0.000000 -28.760549 8.761353 -1.760920 25.830384 -2.337521 12.018907 7.389383 4.984186 -2.934481 
0.000693 0.927546 0.005985 -1.310749 2.126051 -6.558913 0.000000 0.000000 0.000000 -14.816238 0.465760 -1.384003 9.342417 -2.568766 16.513562 5.357274 -9.278263 -12.999990 0.000000 0.000000 0.000000 5.409685 4.768990 -23.383365 1.987667 2.156732 61.685747 -1.967513 -9.148510 2.511748 0.000000 0.000000 0.000000 2.116753 -0.789055 3.274817 -6.221904 3.990091 29.018048 3.279829 2.373313 -26.390549 0.000000 0.000000 0.000000 -0.764137 -0.245134 17.408525 0.000000 0.000000 0.000000 30.190640 -13.843785 -5.576615 -19.438233 0.398336 -2.657178 -7.105130 -3.560798 -1.593926 0.000000 0.000000 0.000000 -27.681445 7.936893 -1.160280 23.968854 -3.365448 15.059959 6.801110 3.959685 -1.136708 
0.003592 0.926405 0.001357 -2.077859 3.445672 -6.807461 0.000000 0.000000 0.000000 -14.475202 2.061586 2.875108 10.634929 -2.662970 14.789594 6.230530 -11.178654 -14.886766 0.000000 0.000000 0.000000 5.488686 5.559725 -27.339381 0.357118 2.418697 49.786498 -1.938681 -8.751183 2.230491 0.000000 0.000000 0.000000 2.727480 -1.066222 4.336346 -4.867233 3.214642 28.015208 3.092285 1.240214 -25.574735 0.000000 0.000000 0.000000 -0.867925 -0.164542 17.236353 0.000000 0.000000 0.000000 30.922249 -15.050122 -6.683516 -17.349320 -0.913182 -7.756206 -8.221913 -5.241265 -5.370211 0.000000 0.000000 0.000000 -27.132074 5.347632 0.993296 21.787966 -3.793802 16.658425 7.538417 4.383699 -1.189028 
0.003770 0.920494 -0.003024 -2.168982 4.270006 -6.863824 0.000000 0.000000 0.000000 -14.105660 3.331573 6.378586 10.923490 -2.675471 14.343592 7.120428 -12.301457 -16.551047 0.000000 0.000000 0.000000 5.147758 5.620658 -28.204637 -2.433871 2.830246 32.635119 -0.613693 -6.631613 3.923454 0.000000 0.000000 0.000000 2.506522 -1.032763 4.454961 -4.226700 2.932407 28.580732 3.285835 0.401980 -25.273650 0.000000 0.000000 0.000000 -0.507443 -0.369624 17.147491 0.000000 0.000000 0.000000 32.643418 -16.189334 -7.756798 -15.537523 -2.052716 -12.754894 -8.590679 -6.360636 -8.260875 0.000000 0.000000 0.000000 -27.570253 3.122710 3.057596 21.425326 -4.007730 17.365146 7.675716 5.042963 -2.659586 
0.002005 0.909877 -0.006075 -1.775362 4.610138 -6.581405 0.000000 0.000000 0.000000 -14.059674 4.358149 9.145429 11.064109 -2.822616 15.170523 7.987282 -12.337057 -17.900943 0.000000 0.000000 0.000000 5.149743 5.481384 -27.600102 -5.133508 2.628418 17.879251 0.225547 -5.783660 5.432811 0.000000 0.000000 0.000000 1.964035 -0.853698 4.025705 -4.381468 3.048146 29.441452 3.705691 -0.137587 -25.227271 0.000000 0.000000 0.000000 -0.151997 -0.535916 16.501719 0.000000 0.000000 0.000000 34.815979 -17.537831 -9.133242 -14.462848 -2.703427 -15.906128 -7.464987 -6.884037 -11.818395 0.000000 0.000000 0.000000 -28.210055 2.159726 4.140314 22.745407 -4.343118 18.016230 6.235818 4.793532 -4.129289 
-0.001703 0.901330 -0.007620 -2.019108 5.088251 -5.924498 0.000000 0.000000 0.000000 -12.641830 4.777087 10.915581 10.229290 -2.959243 17.507141 8.600456 -12.496642 -18.857529 0.000000 0.000000 0.000000 6.045408 5.631751 -27.556707 -5.814365 2.252018 12.293840 -0.542986 -8.248587 5.840796 0.000000 0.000000 0.000000 2.075552 -0.819825 3.457197 -4.348005 3.022435 29.752720 3.847614 -0.358706 -25.693525 0.000000 0.000000 0.000000 -0.031201 -0.635254 16.943695 0.000000 0.000000 0.000000 35.461699 -17.889078 -9.472979 -14.037005 -3.139206 -17.940332 -7.181842 -7.264308 -13.500282 0.000000 0.000000 0.000000 -28.425096 1.573224 4.703966 23.396629 -4.638131 18.749963 5.613852 4.673255 -4.761134 
-0.005288 0.897463 -0.003105 -2.885016 5.273740 -5.660768 0.000000 0.000000 0.000000 -10.636360 5.119138 12.970351 9.709786 -3.309083 21.012324 8.388338 -12.893245 -18.622917 0.000000 0.000000 0.000000 7.912323 5.654967 -25.975736 -5.412044 2.390578 14.864178 -0.135937 -5.789285 4.526969 0.000000 0.000000 0.000000 3.149032 -0.872647 1.851750 -3.961059 2.922725 31.248161 3.582295 -0.502034 -26.638092 0.000000 0.000000 0.000000 -0.119548 -0.592491 17.088889 0.000000 0.000000 0.000000 34.629251 -17.673688 -9.246944 -15.220865 -3.106255 -17.137681 -6.005877 -7.140282 -15.357884 0.000000 0.000000 0.000000 -28.290160 1.680817 4.562267 23.282252 -4.605620 18.794655 5.962606 4.357490 -3.401875 
-0.011809 0.899403 0.005052 -4.776370 4.909133 -5.102073 0.000000 0.000000 0.000000 -7.432988 4.418076 12.668899 8.213439 -3.838674 28.417013 6.314926 -12.675195 -15.376874 0.000000 0.000000 0.000000 10.949196 6.131470 -25.533766 -5.668750 2.917463 19.348669 0.707659 -6.970265 8.009802 0.000000 0.000000 0.000000 4.638265 -0.884600 -0.514216 -3.259811 2.658187 32.198257 3.405659 -0.103693 -26.955282 0.000000 0.000000 0.000000 0.553090 -1.041938 16.739166 0.000000 0.000000 0.000000 32.685495 -15.792804 -7.377265 -17.291795 -2.713080 -14.728582 -6.486428 -7.885436 -16.753861 0.000000 0.000000 0.000000 -27.297124 1.424814 4.460848 22.113971 -4.328224 18.327746 6.551174 4.465016 -2.806887 
-0.016774 0.905904 0.011715 -5.468628 3.840056 -4.667079 0.000000 0.000000 0.000000 -5.861769 2.789944 8.034734 4.539751 -3.901460 41.994116 0.976269 -10.710147 -6.523289 0.000000 0.000000 0.000000 13.805941 6.289360 -24.049931 -6.676548 3.843465 24.208296 -0.363903 -6.178955 4.209612 0.000000 0.000000 0.000000 4.842731 -0.704245 -2.172326 -2.713542 2.493678 32.444143 3.354555 0.431762 -26.476958 0.000000 0.000000 0.000000 0.398161 -0.867695 15.369324 0.000000 0.000000 0.000000 31.410316 -13.756025 -5.513570 -20.007992 -1.804199 -10.740158 -7.257629 -8.229077 -16.361952 0.000000 0.000000 0.000000 -27.233756 1.642973 4.265998 21.997847 -3.674072 16.332096 7.655815 5.188640 -3.051169 
-0.023684 0.911975 0.012685 -6.213151 3.005034 -4.174126 0.000000 0.000000 0.000000 -3.288063 0.175544 -0.264499 -0.272931 -2.477234 58.008011 -3.866721 -8.285331 1.972249 0.000000 0.000000 0.000000 15.189473 5.247836 -19.671739 -5.678639 3.355370 22.867376 -1.441569 -4.976270 0.208191 0.000000 0.000000 0.000000 5.097253 -0.631099 -3.106292 -3.165508 2.763574 32.287230 3.645489 1.370893 -25.977237 0.000000 0.000000 0.000000 -0.164281 -0.501117 14.623356 0.000000 0.000000 0.000000 31.033692 -12.116840 -3.921144 -21.650139 -0.881705 -7.412314 -9.148883 -8.298366 -13.156046 0.000000 0.000000 0.000000 -27.062299 2.570745 3.368575 22.718006 -3.066533 14.337663 8.271631 6.264847 -4.808086 
